<mxfile host="app.diagrams.net" modified="2024-01-23T15:35:49.842Z" agent="Mozilla/5.0 (Windows NT 10.0; Win64; x64) AppleWebKit/537.36 (KHTML, like Gecko) Chrome/119.0.0.0 Safari/537.36 OPR/105.0.0.0" etag="SLB2VXgBr9O_X_jfpos0" version="22.1.22" type="device">
  <diagram name="Страница — 1" id="wy_U_CQMCd4nrSrz7wJG">
    <mxGraphModel dx="1393" dy="766" grid="1" gridSize="10" guides="1" tooltips="1" connect="1" arrows="1" fold="1" page="1" pageScale="1" pageWidth="827" pageHeight="1169" math="0" shadow="0">
      <root>
        <mxCell id="0" />
        <mxCell id="1" parent="0" />
        <mxCell id="s3Xfv01uh8gfK7K0oHKM-8" value="&lt;span style=&quot;font-size: 22px;&quot;&gt;Class Dog&lt;/span&gt;" style="swimlane;whiteSpace=wrap;html=1;startSize=80;" vertex="1" parent="1">
          <mxGeometry x="10" y="430" width="140" height="130" as="geometry" />
        </mxCell>
        <mxCell id="s3Xfv01uh8gfK7K0oHKM-9" value="&lt;span style=&quot;font-size: 22px;&quot;&gt;Class Cat&lt;/span&gt;" style="swimlane;whiteSpace=wrap;html=1;startSize=80;" vertex="1" parent="1">
          <mxGeometry x="190" y="430" width="140" height="130" as="geometry" />
        </mxCell>
        <mxCell id="s3Xfv01uh8gfK7K0oHKM-10" value="&lt;span style=&quot;font-size: 22px;&quot;&gt;Class Hamster&lt;/span&gt;" style="swimlane;whiteSpace=wrap;html=1;startSize=80;" vertex="1" parent="1">
          <mxGeometry x="360" y="430" width="140" height="130" as="geometry" />
        </mxCell>
        <mxCell id="s3Xfv01uh8gfK7K0oHKM-12" style="edgeStyle=orthogonalEdgeStyle;rounded=0;orthogonalLoop=1;jettySize=auto;html=1;exitX=0.25;exitY=1;exitDx=0;exitDy=0;entryX=0.5;entryY=0;entryDx=0;entryDy=0;" edge="1" parent="1" source="s3Xfv01uh8gfK7K0oHKM-11" target="s3Xfv01uh8gfK7K0oHKM-8">
          <mxGeometry relative="1" as="geometry" />
        </mxCell>
        <mxCell id="s3Xfv01uh8gfK7K0oHKM-15" value="&lt;font style=&quot;font-size: 16px;&quot;&gt;Extends&lt;/font&gt;" style="edgeLabel;html=1;align=center;verticalAlign=middle;resizable=0;points=[];" vertex="1" connectable="0" parent="s3Xfv01uh8gfK7K0oHKM-12">
          <mxGeometry x="0.0818" y="-1" relative="1" as="geometry">
            <mxPoint as="offset" />
          </mxGeometry>
        </mxCell>
        <mxCell id="s3Xfv01uh8gfK7K0oHKM-14" style="edgeStyle=orthogonalEdgeStyle;rounded=0;orthogonalLoop=1;jettySize=auto;html=1;exitX=0.75;exitY=1;exitDx=0;exitDy=0;entryX=0.5;entryY=0;entryDx=0;entryDy=0;" edge="1" parent="1" source="s3Xfv01uh8gfK7K0oHKM-11" target="s3Xfv01uh8gfK7K0oHKM-10">
          <mxGeometry relative="1" as="geometry" />
        </mxCell>
        <mxCell id="s3Xfv01uh8gfK7K0oHKM-17" value="&lt;font style=&quot;font-size: 20px;&quot;&gt;Extends&lt;/font&gt;" style="edgeLabel;html=1;align=center;verticalAlign=middle;resizable=0;points=[];" vertex="1" connectable="0" parent="s3Xfv01uh8gfK7K0oHKM-14">
          <mxGeometry y="2" relative="1" as="geometry">
            <mxPoint as="offset" />
          </mxGeometry>
        </mxCell>
        <mxCell id="s3Xfv01uh8gfK7K0oHKM-29" style="edgeStyle=orthogonalEdgeStyle;rounded=0;orthogonalLoop=1;jettySize=auto;html=1;exitX=0.5;exitY=0;exitDx=0;exitDy=0;" edge="1" parent="1" source="s3Xfv01uh8gfK7K0oHKM-11">
          <mxGeometry relative="1" as="geometry">
            <mxPoint x="440" y="110" as="targetPoint" />
          </mxGeometry>
        </mxCell>
        <mxCell id="s3Xfv01uh8gfK7K0oHKM-32" value="&lt;font style=&quot;font-size: 18px;&quot;&gt;Extends&lt;/font&gt;" style="edgeLabel;html=1;align=center;verticalAlign=middle;resizable=0;points=[];" vertex="1" connectable="0" parent="s3Xfv01uh8gfK7K0oHKM-29">
          <mxGeometry x="-0.0052" y="2" relative="1" as="geometry">
            <mxPoint x="1" y="1" as="offset" />
          </mxGeometry>
        </mxCell>
        <mxCell id="s3Xfv01uh8gfK7K0oHKM-11" value="&lt;font style=&quot;font-size: 19px;&quot;&gt;Class home_animals&lt;/font&gt;" style="swimlane;whiteSpace=wrap;html=1;startSize=70;" vertex="1" parent="1">
          <mxGeometry x="130" y="210" width="240" height="110" as="geometry">
            <mxRectangle x="130" y="210" width="230" height="70" as="alternateBounds" />
          </mxGeometry>
        </mxCell>
        <mxCell id="s3Xfv01uh8gfK7K0oHKM-13" style="edgeStyle=orthogonalEdgeStyle;rounded=0;orthogonalLoop=1;jettySize=auto;html=1;exitX=0.5;exitY=1;exitDx=0;exitDy=0;entryX=0.429;entryY=-0.031;entryDx=0;entryDy=0;entryPerimeter=0;" edge="1" parent="1" source="s3Xfv01uh8gfK7K0oHKM-11" target="s3Xfv01uh8gfK7K0oHKM-9">
          <mxGeometry relative="1" as="geometry" />
        </mxCell>
        <mxCell id="s3Xfv01uh8gfK7K0oHKM-16" value="&lt;font style=&quot;font-size: 17px;&quot;&gt;Extends&lt;/font&gt;" style="edgeLabel;html=1;align=center;verticalAlign=middle;resizable=0;points=[];" vertex="1" connectable="0" parent="s3Xfv01uh8gfK7K0oHKM-13">
          <mxGeometry x="-0.2081" y="2" relative="1" as="geometry">
            <mxPoint y="2" as="offset" />
          </mxGeometry>
        </mxCell>
        <mxCell id="s3Xfv01uh8gfK7K0oHKM-18" value="&lt;span style=&quot;font-size: 22px;&quot;&gt;Class Horse&lt;/span&gt;" style="swimlane;whiteSpace=wrap;html=1;startSize=80;" vertex="1" parent="1">
          <mxGeometry x="560" y="430" width="140" height="130" as="geometry" />
        </mxCell>
        <mxCell id="s3Xfv01uh8gfK7K0oHKM-19" value="&lt;span style=&quot;font-size: 22px;&quot;&gt;Class Camel&lt;/span&gt;" style="swimlane;whiteSpace=wrap;html=1;startSize=80;" vertex="1" parent="1">
          <mxGeometry x="740" y="430" width="140" height="130" as="geometry" />
        </mxCell>
        <mxCell id="s3Xfv01uh8gfK7K0oHKM-20" value="&lt;span style=&quot;font-size: 22px;&quot;&gt;Class Donkey&lt;/span&gt;" style="swimlane;whiteSpace=wrap;html=1;startSize=80;" vertex="1" parent="1">
          <mxGeometry x="910" y="430" width="140" height="130" as="geometry" />
        </mxCell>
        <mxCell id="s3Xfv01uh8gfK7K0oHKM-21" style="edgeStyle=orthogonalEdgeStyle;rounded=0;orthogonalLoop=1;jettySize=auto;html=1;exitX=0.25;exitY=1;exitDx=0;exitDy=0;entryX=0.5;entryY=0;entryDx=0;entryDy=0;" edge="1" parent="1" source="s3Xfv01uh8gfK7K0oHKM-25" target="s3Xfv01uh8gfK7K0oHKM-18">
          <mxGeometry relative="1" as="geometry" />
        </mxCell>
        <mxCell id="s3Xfv01uh8gfK7K0oHKM-22" value="&lt;font style=&quot;font-size: 16px;&quot;&gt;Extends&lt;/font&gt;" style="edgeLabel;html=1;align=center;verticalAlign=middle;resizable=0;points=[];" vertex="1" connectable="0" parent="s3Xfv01uh8gfK7K0oHKM-21">
          <mxGeometry x="0.0818" y="-1" relative="1" as="geometry">
            <mxPoint as="offset" />
          </mxGeometry>
        </mxCell>
        <mxCell id="s3Xfv01uh8gfK7K0oHKM-23" style="edgeStyle=orthogonalEdgeStyle;rounded=0;orthogonalLoop=1;jettySize=auto;html=1;exitX=0.75;exitY=1;exitDx=0;exitDy=0;entryX=0.5;entryY=0;entryDx=0;entryDy=0;" edge="1" parent="1" source="s3Xfv01uh8gfK7K0oHKM-25" target="s3Xfv01uh8gfK7K0oHKM-20">
          <mxGeometry relative="1" as="geometry" />
        </mxCell>
        <mxCell id="s3Xfv01uh8gfK7K0oHKM-24" value="&lt;font style=&quot;font-size: 20px;&quot;&gt;Extends&lt;/font&gt;" style="edgeLabel;html=1;align=center;verticalAlign=middle;resizable=0;points=[];" vertex="1" connectable="0" parent="s3Xfv01uh8gfK7K0oHKM-23">
          <mxGeometry y="2" relative="1" as="geometry">
            <mxPoint as="offset" />
          </mxGeometry>
        </mxCell>
        <mxCell id="s3Xfv01uh8gfK7K0oHKM-30" style="edgeStyle=orthogonalEdgeStyle;rounded=0;orthogonalLoop=1;jettySize=auto;html=1;exitX=0.5;exitY=0;exitDx=0;exitDy=0;" edge="1" parent="1" source="s3Xfv01uh8gfK7K0oHKM-25">
          <mxGeometry relative="1" as="geometry">
            <mxPoint x="600" y="110" as="targetPoint" />
          </mxGeometry>
        </mxCell>
        <mxCell id="s3Xfv01uh8gfK7K0oHKM-33" value="&lt;font style=&quot;font-size: 17px;&quot;&gt;Extends&lt;/font&gt;" style="edgeLabel;html=1;align=center;verticalAlign=middle;resizable=0;points=[];" vertex="1" connectable="0" parent="s3Xfv01uh8gfK7K0oHKM-30">
          <mxGeometry x="0.1452" y="-1" relative="1" as="geometry">
            <mxPoint as="offset" />
          </mxGeometry>
        </mxCell>
        <mxCell id="s3Xfv01uh8gfK7K0oHKM-25" value="&lt;font style=&quot;font-size: 19px;&quot;&gt;Class packed_animals&lt;/font&gt;" style="swimlane;whiteSpace=wrap;html=1;startSize=70;" vertex="1" parent="1">
          <mxGeometry x="680" y="210" width="240" height="110" as="geometry">
            <mxRectangle x="130" y="210" width="230" height="70" as="alternateBounds" />
          </mxGeometry>
        </mxCell>
        <mxCell id="s3Xfv01uh8gfK7K0oHKM-26" style="edgeStyle=orthogonalEdgeStyle;rounded=0;orthogonalLoop=1;jettySize=auto;html=1;exitX=0.5;exitY=1;exitDx=0;exitDy=0;entryX=0.429;entryY=-0.031;entryDx=0;entryDy=0;entryPerimeter=0;" edge="1" parent="1" source="s3Xfv01uh8gfK7K0oHKM-25" target="s3Xfv01uh8gfK7K0oHKM-19">
          <mxGeometry relative="1" as="geometry" />
        </mxCell>
        <mxCell id="s3Xfv01uh8gfK7K0oHKM-27" value="&lt;font style=&quot;font-size: 17px;&quot;&gt;Extends&lt;/font&gt;" style="edgeLabel;html=1;align=center;verticalAlign=middle;resizable=0;points=[];" vertex="1" connectable="0" parent="s3Xfv01uh8gfK7K0oHKM-26">
          <mxGeometry x="-0.2081" y="2" relative="1" as="geometry">
            <mxPoint y="2" as="offset" />
          </mxGeometry>
        </mxCell>
        <mxCell id="s3Xfv01uh8gfK7K0oHKM-28" value="&lt;font style=&quot;font-size: 19px;&quot;&gt;Class animals&lt;/font&gt;" style="swimlane;whiteSpace=wrap;html=1;startSize=70;" vertex="1" parent="1">
          <mxGeometry x="400" width="240" height="110" as="geometry">
            <mxRectangle x="130" y="210" width="230" height="70" as="alternateBounds" />
          </mxGeometry>
        </mxCell>
      </root>
    </mxGraphModel>
  </diagram>
</mxfile>
